<mxfile host="app.diagrams.net" agent="Mozilla/5.0 (X11; Linux x86_64) AppleWebKit/537.36 (KHTML, like Gecko) Chrome/131.0.0.0 Safari/537.36" version="26.0.14">
  <diagram name="Page-1" id="RGffDiZxuDaKuo9IqToQ">
    <mxGraphModel dx="2764" dy="6356" grid="1" gridSize="10" guides="1" tooltips="1" connect="1" arrows="1" fold="1" page="1" pageScale="1" pageWidth="827" pageHeight="1169" math="0" shadow="0">
      <root>
        <mxCell id="0" />
        <mxCell id="1" parent="0" />
        <mxCell id="yJ3wSWUFKZupVuXnvP56-10" value="" style="group" vertex="1" connectable="0" parent="1">
          <mxGeometry x="470" y="-130" width="406.25" height="790" as="geometry" />
        </mxCell>
        <mxCell id="yJ3wSWUFKZupVuXnvP56-76" value="" style="group" vertex="1" connectable="0" parent="1">
          <mxGeometry x="180" y="-2380" width="5050" height="3120" as="geometry" />
        </mxCell>
        <mxCell id="yJ3wSWUFKZupVuXnvP56-80" value="" style="rounded=0;whiteSpace=wrap;html=1;fillStyle=solid;fillColor=#303030;sketch=1;curveFitting=1;jiggle=2;strokeColor=none;" vertex="1" parent="yJ3wSWUFKZupVuXnvP56-76">
          <mxGeometry x="-761" y="-351" width="4931" height="3471" as="geometry" />
        </mxCell>
        <mxCell id="yJ3wSWUFKZupVuXnvP56-9" value="" style="group;sketch=1;curveFitting=1;jiggle=2;" vertex="1" connectable="0" parent="yJ3wSWUFKZupVuXnvP56-76">
          <mxGeometry y="230" width="406.25" height="350" as="geometry" />
        </mxCell>
        <mxCell id="yJ3wSWUFKZupVuXnvP56-1" value="" style="rounded=0;whiteSpace=wrap;html=1;strokeColor=light-dark(#647687,#213640);fillColor=light-dark(#686868,#213640);fontColor=#ffffff;gradientColor=none;fillStyle=solid;opacity=70;" vertex="1" parent="yJ3wSWUFKZupVuXnvP56-9">
          <mxGeometry width="406.25" height="350" as="geometry" />
        </mxCell>
        <mxCell id="yJ3wSWUFKZupVuXnvP56-2" value="&lt;h1&gt;&lt;font face=&quot;Garamond&quot; style=&quot;font-size: 32px; color: light-dark(rgb(51, 51, 51), rgb(207, 207, 207));&quot;&gt;ConfigParser&lt;/font&gt;&lt;/h1&gt;" style="rounded=0;whiteSpace=wrap;html=1;fillColor=light-dark(#787878,#213640);strokeColor=none;sketch=1;curveFitting=1;jiggle=2;" vertex="1" parent="yJ3wSWUFKZupVuXnvP56-9">
          <mxGeometry x="16.25" y="10" width="380" height="100" as="geometry" />
        </mxCell>
        <mxCell id="yJ3wSWUFKZupVuXnvP56-6" value="&lt;h4&gt;&lt;font face=&quot;Garamond&quot; style=&quot;font-size: 20px; color: light-dark(rgb(35, 35, 35), rgb(207, 207, 207));&quot;&gt;size_t&lt;span style=&quot;white-space: pre;&quot;&gt;&#x9;&lt;span style=&quot;white-space: pre;&quot;&gt;&#x9;&lt;span style=&quot;white-space: pre;&quot;&gt;&#x9;&lt;/span&gt;&lt;span style=&quot;white-space: pre;&quot;&gt;&#x9;&lt;/span&gt;&lt;span style=&quot;white-space: pre;&quot;&gt;&#x9;&lt;/span&gt;&lt;/span&gt;&lt;/span&gt;nb_server&lt;/font&gt;&lt;/h4&gt;" style="rounded=0;whiteSpace=wrap;html=1;fillColor=light-dark(#787878,#213640);strokeColor=none;opacity=60;align=left;sketch=1;curveFitting=1;jiggle=2;" vertex="1" parent="yJ3wSWUFKZupVuXnvP56-9">
          <mxGeometry x="13.120000000000005" y="270" width="383.13" height="60" as="geometry" />
        </mxCell>
        <mxCell id="yJ3wSWUFKZupVuXnvP56-7" value="&lt;h4&gt;&lt;font face=&quot;Garamond&quot; style=&quot;font-size: 20px; color: light-dark(rgb(35, 35, 35), rgb(207, 207, 207));&quot;&gt;std::vector&amp;lt;std::string&amp;gt;&lt;span style=&quot;white-space: pre;&quot;&gt;&lt;span style=&quot;white-space: pre;&quot;&gt;&lt;span style=&quot;white-space: pre;&quot;&gt;&#x9;&lt;/span&gt;_servers_config&lt;/span&gt;&lt;/span&gt;&lt;/font&gt;&lt;/h4&gt;" style="rounded=0;whiteSpace=wrap;html=1;fillColor=#787878;strokeColor=none;opacity=60;align=left;sketch=1;curveFitting=1;jiggle=2;fillStyle=solid;" vertex="1" parent="yJ3wSWUFKZupVuXnvP56-9">
          <mxGeometry x="13.120000000000005" y="200" width="383.13" height="60" as="geometry" />
        </mxCell>
        <mxCell id="yJ3wSWUFKZupVuXnvP56-8" value="&lt;h4 style=&quot;text-align: right;&quot;&gt;&lt;font style=&quot;&quot; face=&quot;Garamond&quot;&gt;&lt;span style=&quot;font-size: 20px;&quot;&gt;&lt;font style=&quot;&quot;&gt;&lt;font style=&quot;color: light-dark(rgb(35, 35, 35), rgb(207, 207, 207));&quot;&gt;std::vector&amp;lt;&lt;/font&gt;&lt;font style=&quot;color: light-dark(rgb(114, 190, 176), rgb(207, 207, 207));&quot;&gt;ServerConf&lt;/font&gt;&lt;font style=&quot;color: light-dark(rgb(35, 35, 35), rgb(207, 207, 207));&quot;&gt;&amp;gt;&lt;/font&gt;&lt;/font&gt;&lt;span style=&quot;color: light-dark(rgb(35, 35, 35), rgb(207, 207, 207)); white-space: pre;&quot;&gt;&#x9;&lt;/span&gt;&lt;font style=&quot;color: light-dark(rgb(35, 35, 35), rgb(207, 207, 207));&quot;&gt;_servers&lt;/font&gt;&lt;/span&gt;&lt;/font&gt;&lt;/h4&gt;" style="rounded=0;whiteSpace=wrap;html=1;fillColor=#787878;strokeColor=none;opacity=60;align=left;sketch=1;curveFitting=1;jiggle=2;fillStyle=solid;" vertex="1" parent="yJ3wSWUFKZupVuXnvP56-9">
          <mxGeometry x="13.120000000000005" y="130" width="383.13" height="60" as="geometry" />
        </mxCell>
        <mxCell id="yJ3wSWUFKZupVuXnvP56-45" value="" style="group;strokeColor=none;sketch=1;curveFitting=1;jiggle=2;" vertex="1" connectable="0" parent="yJ3wSWUFKZupVuXnvP56-76">
          <mxGeometry x="696.25" width="590" height="790" as="geometry" />
        </mxCell>
        <mxCell id="yJ3wSWUFKZupVuXnvP56-19" value="" style="rounded=0;whiteSpace=wrap;html=1;fillColor=light-dark(#437169,#325652);fontColor=#ffffff;strokeColor=none;sketch=1;curveFitting=1;jiggle=2;" vertex="1" parent="yJ3wSWUFKZupVuXnvP56-45">
          <mxGeometry width="590" height="790" as="geometry" />
        </mxCell>
        <mxCell id="yJ3wSWUFKZupVuXnvP56-26" value="&lt;h1&gt;&lt;font style=&quot;font-size: 32px; color: light-dark(rgb(8, 35, 28), rgb(207, 207, 207));&quot; face=&quot;Garamond&quot;&gt;ServerConf&lt;/font&gt;&lt;/h1&gt;" style="rounded=0;whiteSpace=wrap;html=1;fillColor=light-dark(#487873,#365A57);strokeColor=none;glass=0;shadow=0;sketch=1;curveFitting=1;jiggle=2;" vertex="1" parent="yJ3wSWUFKZupVuXnvP56-45">
          <mxGeometry x="10" y="10" width="570" height="110" as="geometry" />
        </mxCell>
        <mxCell id="yJ3wSWUFKZupVuXnvP56-31" value="&lt;h1&gt;&lt;font style=&quot;font-size: 20px; color: rgb(5, 21, 16);&quot; face=&quot;Garamond&quot;&gt;std::string&lt;span style=&quot;white-space: pre;&quot;&gt;&#x9;&lt;/span&gt;&lt;span style=&quot;white-space: pre;&quot;&gt;&#x9;&lt;/span&gt;&lt;span style=&quot;white-space: pre;&quot;&gt;&#x9;&lt;/span&gt;&lt;span style=&quot;white-space: pre;&quot;&gt;&#x9;&lt;/span&gt;&lt;span style=&quot;white-space: pre;&quot;&gt;&#x9;&lt;span style=&quot;white-space: pre;&quot;&gt;&#x9;&lt;/span&gt;&lt;span style=&quot;white-space: pre;&quot;&gt;&#x9;&lt;/span&gt;&lt;/span&gt;_configFile&lt;/font&gt;&lt;/h1&gt;" style="rounded=0;whiteSpace=wrap;html=1;fillColor=light-dark(#487873,#365A57);strokeColor=none;align=left;sketch=1;curveFitting=1;jiggle=2;" vertex="1" parent="yJ3wSWUFKZupVuXnvP56-45">
          <mxGeometry x="10" y="160" width="570" height="60" as="geometry" />
        </mxCell>
        <mxCell id="yJ3wSWUFKZupVuXnvP56-35" value="&lt;h1&gt;&lt;font face=&quot;Garamond&quot; style=&quot;font-size: 20px;&quot;&gt;uint16_t&lt;span style=&quot;white-space: pre;&quot;&gt;&#x9;&lt;/span&gt;&lt;span style=&quot;white-space: pre;&quot;&gt;&#x9;&lt;/span&gt;&lt;span style=&quot;white-space: pre;&quot;&gt;&#x9;&lt;/span&gt;&lt;span style=&quot;white-space: pre;&quot;&gt;&#x9;&lt;/span&gt;&lt;span style=&quot;white-space: pre;&quot;&gt;&#x9;&lt;span style=&quot;white-space: pre;&quot;&gt;&#x9;&lt;/span&gt;&lt;span style=&quot;white-space: pre;&quot;&gt;&#x9;&lt;span style=&quot;white-space: pre;&quot;&gt;&#x9;&lt;/span&gt;&lt;/span&gt;&lt;/span&gt;_port&lt;/font&gt;&lt;/h1&gt;" style="rounded=0;whiteSpace=wrap;html=1;fillColor=light-dark(#487873,#365A57);strokeColor=none;align=left;sketch=1;curveFitting=1;jiggle=2;fontColor=#051510;" vertex="1" parent="yJ3wSWUFKZupVuXnvP56-45">
          <mxGeometry x="10" y="230" width="570" height="60" as="geometry" />
        </mxCell>
        <mxCell id="yJ3wSWUFKZupVuXnvP56-36" value="&lt;h1&gt;&lt;font face=&quot;Garamond&quot; style=&quot;font-size: 20px;&quot;&gt;in_addr_t&lt;span style=&quot;white-space: pre;&quot;&gt;&#x9;&lt;/span&gt;&lt;span style=&quot;white-space: pre;&quot;&gt;&#x9;&lt;/span&gt;&lt;span style=&quot;white-space: pre;&quot;&gt;&#x9;&lt;/span&gt;&lt;span style=&quot;white-space: pre;&quot;&gt;&#x9;&lt;/span&gt;&lt;span style=&quot;white-space: pre;&quot;&gt;&#x9;&lt;span style=&quot;white-space: pre;&quot;&gt;&#x9;&lt;/span&gt;&lt;span style=&quot;white-space: pre;&quot;&gt;&#x9;&lt;/span&gt;&lt;/span&gt;_host&lt;/font&gt;&lt;/h1&gt;" style="rounded=0;whiteSpace=wrap;html=1;fillColor=light-dark(#487873,#365A57);strokeColor=none;align=left;sketch=1;curveFitting=1;jiggle=2;fontColor=#051510;" vertex="1" parent="yJ3wSWUFKZupVuXnvP56-45">
          <mxGeometry x="10" y="300" width="570" height="60" as="geometry" />
        </mxCell>
        <mxCell id="yJ3wSWUFKZupVuXnvP56-37" value="&lt;h1&gt;&lt;font face=&quot;Garamond&quot; style=&quot;font-size: 20px;&quot;&gt;std::string&lt;span style=&quot;white-space: pre;&quot;&gt;&#x9;&lt;/span&gt;&lt;span style=&quot;white-space: pre;&quot;&gt;&#x9;&lt;/span&gt;&lt;span style=&quot;white-space: pre;&quot;&gt;&#x9;&lt;/span&gt;&lt;span style=&quot;white-space: pre;&quot;&gt;&#x9;&lt;/span&gt;&lt;span style=&quot;white-space: pre;&quot;&gt;&#x9;&lt;span style=&quot;white-space: pre;&quot;&gt;&#x9;&lt;/span&gt;&lt;span style=&quot;white-space: pre;&quot;&gt;&#x9;&lt;/span&gt;&lt;/span&gt;_server_name&lt;/font&gt;&lt;/h1&gt;" style="rounded=0;whiteSpace=wrap;html=1;fillColor=light-dark(#487873,#365A57);strokeColor=none;align=left;sketch=1;curveFitting=1;jiggle=2;fontColor=#051510;" vertex="1" parent="yJ3wSWUFKZupVuXnvP56-45">
          <mxGeometry x="10" y="370" width="570" height="60" as="geometry" />
        </mxCell>
        <mxCell id="yJ3wSWUFKZupVuXnvP56-38" value="&lt;h1&gt;&lt;font face=&quot;Garamond&quot; style=&quot;font-size: 20px;&quot;&gt;std::string&lt;span style=&quot;white-space: pre;&quot;&gt;&#x9;&lt;/span&gt;&lt;span style=&quot;white-space: pre;&quot;&gt;&#x9;&lt;/span&gt;&lt;span style=&quot;white-space: pre;&quot;&gt;&#x9;&lt;/span&gt;&lt;span style=&quot;white-space: pre;&quot;&gt;&#x9;&lt;/span&gt;&lt;span style=&quot;white-space: pre;&quot;&gt;&#x9;&lt;span style=&quot;white-space: pre;&quot;&gt;&#x9;&lt;/span&gt;&lt;span style=&quot;white-space: pre;&quot;&gt;&#x9;&lt;/span&gt;&lt;/span&gt;_root&lt;/font&gt;&lt;/h1&gt;" style="rounded=0;whiteSpace=wrap;html=1;fillColor=light-dark(#487873,#365A57);strokeColor=none;align=left;sketch=1;curveFitting=1;jiggle=2;fontColor=#051510;" vertex="1" parent="yJ3wSWUFKZupVuXnvP56-45">
          <mxGeometry x="10" y="440" width="570" height="60" as="geometry" />
        </mxCell>
        <mxCell id="yJ3wSWUFKZupVuXnvP56-39" value="&lt;h1&gt;&lt;font face=&quot;Garamond&quot; style=&quot;font-size: 20px;&quot;&gt;unsigned long&lt;span style=&quot;white-space: pre;&quot;&gt;&#x9;&lt;/span&gt;&lt;span style=&quot;white-space: pre;&quot;&gt;&#x9;&lt;/span&gt;&lt;span style=&quot;white-space: pre;&quot;&gt;&#x9;&lt;/span&gt;&lt;span style=&quot;white-space: pre;&quot;&gt;&#x9;&lt;span style=&quot;white-space: pre;&quot;&gt;&#x9;&lt;span style=&quot;white-space: pre;&quot;&gt;&#x9;&lt;/span&gt;&lt;/span&gt;&lt;/span&gt;_client_max_body_size&lt;/font&gt;&lt;/h1&gt;" style="rounded=0;whiteSpace=wrap;html=1;fillColor=light-dark(#487873,#365A57);strokeColor=none;align=left;sketch=1;curveFitting=1;jiggle=2;fontColor=#051510;" vertex="1" parent="yJ3wSWUFKZupVuXnvP56-45">
          <mxGeometry x="10" y="510" width="570" height="60" as="geometry" />
        </mxCell>
        <mxCell id="yJ3wSWUFKZupVuXnvP56-40" value="&lt;h1&gt;&lt;font face=&quot;Garamond&quot; style=&quot;font-size: 20px;&quot;&gt;std::string&lt;span style=&quot;white-space: pre;&quot;&gt;&#x9;&lt;/span&gt;&lt;span style=&quot;white-space: pre;&quot;&gt;&#x9;&lt;/span&gt;&lt;span style=&quot;white-space: pre;&quot;&gt;&#x9;&lt;/span&gt;&lt;span style=&quot;white-space: pre;&quot;&gt;&#x9;&lt;span style=&quot;white-space: pre;&quot;&gt;&#x9;&lt;/span&gt;&lt;span style=&quot;white-space: pre;&quot;&gt;&#x9;&lt;span style=&quot;white-space: pre;&quot;&gt;&#x9;&lt;/span&gt;&lt;/span&gt;&lt;/span&gt;_index&lt;/font&gt;&lt;/h1&gt;" style="rounded=0;whiteSpace=wrap;html=1;fillColor=light-dark(#487873,#365A57);strokeColor=none;align=left;sketch=1;curveFitting=1;jiggle=2;fontColor=#051510;" vertex="1" parent="yJ3wSWUFKZupVuXnvP56-45">
          <mxGeometry x="10" y="580" width="570" height="60" as="geometry" />
        </mxCell>
        <mxCell id="yJ3wSWUFKZupVuXnvP56-41" value="&lt;h1&gt;&lt;font style=&quot;font-size: 20px;&quot; face=&quot;Garamond&quot;&gt;std::vector&amp;lt;&lt;font style=&quot;color: rgb(255, 217, 102);&quot;&gt;Location&lt;/font&gt;&amp;gt;&lt;span style=&quot;white-space: pre;&quot;&gt;&#x9;&lt;/span&gt;&lt;span style=&quot;white-space: pre;&quot;&gt;&#x9;&lt;/span&gt;&lt;span style=&quot;white-space: pre;&quot;&gt;&#x9;&lt;/span&gt;&lt;span style=&quot;white-space: pre;&quot;&gt;&#x9;&lt;/span&gt;&lt;span style=&quot;white-space: pre;&quot;&gt;&#x9;&lt;/span&gt;_locations&lt;/font&gt;&lt;/h1&gt;" style="rounded=0;whiteSpace=wrap;html=1;fillColor=light-dark(#487873,#365A57);strokeColor=none;align=left;sketch=1;curveFitting=1;jiggle=2;fontColor=#051510;" vertex="1" parent="yJ3wSWUFKZupVuXnvP56-45">
          <mxGeometry x="10" y="650" width="570" height="60" as="geometry" />
        </mxCell>
        <mxCell id="yJ3wSWUFKZupVuXnvP56-42" value="&lt;h1&gt;&lt;font face=&quot;Garamond&quot; style=&quot;font-size: 20px;&quot;&gt;&lt;font style=&quot;color: rgb(255, 153, 204);&quot;&gt;Socket&lt;/font&gt;&lt;span style=&quot;white-space: pre;&quot;&gt;&#x9;&lt;/span&gt;&lt;span style=&quot;white-space: pre;&quot;&gt;&#x9;&lt;/span&gt;&lt;span style=&quot;white-space: pre;&quot;&gt;&#x9;&lt;/span&gt;&lt;span style=&quot;white-space: pre;&quot;&gt;&#x9;&lt;/span&gt;&lt;span style=&quot;white-space: pre;&quot;&gt;&#x9;&lt;span style=&quot;white-space: pre;&quot;&gt;&#x9;&lt;/span&gt;&lt;span style=&quot;white-space: pre;&quot;&gt;&#x9;&lt;span style=&quot;white-space: pre;&quot;&gt;&#x9;&lt;/span&gt;&lt;/span&gt;&lt;/span&gt;_socket&lt;/font&gt;&lt;/h1&gt;" style="rounded=0;whiteSpace=wrap;html=1;fillColor=light-dark(#487873,#365A57);strokeColor=none;align=left;sketch=1;curveFitting=1;jiggle=2;fontColor=#051510;" vertex="1" parent="yJ3wSWUFKZupVuXnvP56-45">
          <mxGeometry x="10" y="720" width="570" height="60" as="geometry" />
        </mxCell>
        <mxCell id="yJ3wSWUFKZupVuXnvP56-70" value="" style="group" vertex="1" connectable="0" parent="yJ3wSWUFKZupVuXnvP56-76">
          <mxGeometry x="1470" y="247.5" width="570" height="865" as="geometry" />
        </mxCell>
        <mxCell id="yJ3wSWUFKZupVuXnvP56-52" value="" style="rounded=0;whiteSpace=wrap;html=1;fillColor=#8F7A39;fontColor=#000000;strokeColor=none;sketch=1;curveFitting=1;jiggle=2;fillStyle=solid;" vertex="1" parent="yJ3wSWUFKZupVuXnvP56-70">
          <mxGeometry width="570" height="865" as="geometry" />
        </mxCell>
        <mxCell id="yJ3wSWUFKZupVuXnvP56-57" value="&lt;h1&gt;&lt;font style=&quot;font-size: 32px; color: light-dark(rgb(58, 49, 23), rgb(207, 207, 207));&quot; face=&quot;Garamond&quot;&gt;Location&lt;/font&gt;&lt;/h1&gt;" style="rounded=0;whiteSpace=wrap;html=1;fillColor=#B09647;strokeColor=none;glass=0;shadow=0;sketch=1;curveFitting=1;jiggle=2;fillStyle=solid;" vertex="1" parent="yJ3wSWUFKZupVuXnvP56-70">
          <mxGeometry x="10" y="15" width="550" height="110" as="geometry" />
        </mxCell>
        <mxCell id="yJ3wSWUFKZupVuXnvP56-59" value="&lt;h1&gt;&lt;font face=&quot;Garamond&quot; style=&quot;font-size: 20px;&quot;&gt;std::string&lt;span style=&quot;white-space: pre;&quot;&gt;&#x9;&lt;/span&gt;&lt;span style=&quot;white-space: pre;&quot;&gt;&#x9;&lt;/span&gt;&lt;span style=&quot;white-space: pre;&quot;&gt;&#x9;&lt;/span&gt;&lt;span style=&quot;white-space: pre;&quot;&gt;&#x9;&lt;/span&gt;&lt;span style=&quot;white-space: pre;&quot;&gt;&#x9;&lt;span style=&quot;white-space: pre;&quot;&gt;&#x9;&lt;/span&gt;&lt;span style=&quot;white-space: pre;&quot;&gt;&#x9;&lt;/span&gt;&lt;/span&gt;_path&lt;/font&gt;&lt;/h1&gt;" style="rounded=0;whiteSpace=wrap;html=1;fillColor=#B09647;strokeColor=none;align=left;sketch=1;curveFitting=1;jiggle=2;fillStyle=solid;fontColor=#3A3117;" vertex="1" parent="yJ3wSWUFKZupVuXnvP56-70">
          <mxGeometry x="10" y="165" width="550" height="60" as="geometry" />
        </mxCell>
        <mxCell id="yJ3wSWUFKZupVuXnvP56-60" value="&lt;h1&gt;&lt;font face=&quot;Garamond&quot; style=&quot;font-size: 20px;&quot;&gt;std::string&lt;span style=&quot;white-space: pre;&quot;&gt;&#x9;&lt;/span&gt;&lt;span style=&quot;white-space: pre;&quot;&gt;&#x9;&lt;/span&gt;&lt;span style=&quot;white-space: pre;&quot;&gt;&#x9;&lt;/span&gt;&lt;span style=&quot;white-space: pre;&quot;&gt;&#x9;&lt;/span&gt;&lt;span style=&quot;white-space: pre;&quot;&gt;&#x9;&lt;span style=&quot;white-space: pre;&quot;&gt;&#x9;&lt;/span&gt;&lt;span style=&quot;white-space: pre;&quot;&gt;&#x9;&lt;/span&gt;&lt;/span&gt;_root&lt;/font&gt;&lt;/h1&gt;" style="rounded=0;whiteSpace=wrap;html=1;fillColor=#B09647;strokeColor=none;align=left;sketch=1;curveFitting=1;jiggle=2;fillStyle=solid;fontColor=#3A3117;" vertex="1" parent="yJ3wSWUFKZupVuXnvP56-70">
          <mxGeometry x="10" y="235" width="550" height="60" as="geometry" />
        </mxCell>
        <mxCell id="yJ3wSWUFKZupVuXnvP56-61" value="&lt;h1&gt;&lt;font face=&quot;Garamond&quot; style=&quot;font-size: 20px;&quot;&gt;std::string&lt;span style=&quot;white-space: pre;&quot;&gt;&#x9;&lt;/span&gt;&lt;span style=&quot;white-space: pre;&quot;&gt;&#x9;&lt;/span&gt;&lt;span style=&quot;white-space: pre;&quot;&gt;&#x9;&lt;/span&gt;&lt;span style=&quot;white-space: pre;&quot;&gt;&#x9;&lt;/span&gt;&lt;span style=&quot;white-space: pre;&quot;&gt;&#x9;&lt;span style=&quot;white-space: pre;&quot;&gt;&#x9;&lt;/span&gt;&lt;span style=&quot;white-space: pre;&quot;&gt;&#x9;&lt;/span&gt;&lt;/span&gt;_return&lt;/font&gt;&lt;/h1&gt;" style="rounded=0;whiteSpace=wrap;html=1;fillColor=#B09647;strokeColor=none;align=left;sketch=1;curveFitting=1;jiggle=2;fillStyle=solid;fontColor=#3A3117;" vertex="1" parent="yJ3wSWUFKZupVuXnvP56-70">
          <mxGeometry x="10" y="375" width="550" height="60" as="geometry" />
        </mxCell>
        <mxCell id="yJ3wSWUFKZupVuXnvP56-62" value="&lt;h1&gt;&lt;font face=&quot;Garamond&quot; style=&quot;font-size: 20px;&quot;&gt;bool&lt;span style=&quot;white-space: pre;&quot;&gt;&#x9;&lt;/span&gt;&lt;span style=&quot;white-space: pre;&quot;&gt;&#x9;&lt;/span&gt;&lt;span style=&quot;white-space: pre;&quot;&gt;&#x9;&lt;/span&gt;&lt;span style=&quot;white-space: pre;&quot;&gt;&#x9;&lt;/span&gt;&lt;span style=&quot;white-space: pre;&quot;&gt;&#x9;&lt;/span&gt;&lt;span style=&quot;white-space: pre;&quot;&gt;&#x9;&lt;/span&gt;&lt;span style=&quot;white-space: pre;&quot;&gt;&#x9;&lt;span style=&quot;white-space: pre;&quot;&gt;&#x9;&lt;/span&gt;&lt;span style=&quot;white-space: pre;&quot;&gt;&#x9;&lt;/span&gt;&lt;/span&gt;_autoindex&lt;/font&gt;&lt;/h1&gt;" style="rounded=0;whiteSpace=wrap;html=1;fillColor=#B09647;strokeColor=none;align=left;sketch=1;curveFitting=1;jiggle=2;fillStyle=solid;fontColor=#3A3117;" vertex="1" parent="yJ3wSWUFKZupVuXnvP56-70">
          <mxGeometry x="10" y="515" width="550" height="60" as="geometry" />
        </mxCell>
        <mxCell id="yJ3wSWUFKZupVuXnvP56-63" value="&lt;h1&gt;&lt;font face=&quot;Garamond&quot; style=&quot;font-size: 20px;&quot;&gt;unsigned long&lt;span style=&quot;white-space: pre;&quot;&gt;&#x9;&lt;/span&gt;&lt;span style=&quot;white-space: pre;&quot;&gt;&#x9;&lt;/span&gt;&lt;span style=&quot;white-space: pre;&quot;&gt;&#x9;&lt;/span&gt;&lt;span style=&quot;white-space: pre;&quot;&gt;&#x9;&lt;span style=&quot;white-space: pre;&quot;&gt;&#x9;&lt;/span&gt;&lt;span style=&quot;white-space: pre;&quot;&gt;&#x9;&lt;/span&gt;&lt;/span&gt;_clientMBS&lt;/font&gt;&lt;/h1&gt;" style="rounded=0;whiteSpace=wrap;html=1;fillColor=#B09647;strokeColor=none;align=left;sketch=1;curveFitting=1;jiggle=2;fillStyle=solid;fontColor=#3A3117;" vertex="1" parent="yJ3wSWUFKZupVuXnvP56-70">
          <mxGeometry x="10" y="795" width="550" height="60" as="geometry" />
        </mxCell>
        <mxCell id="yJ3wSWUFKZupVuXnvP56-64" value="&lt;h1&gt;&lt;font face=&quot;Garamond&quot; style=&quot;font-size: 20px;&quot;&gt;std::string&lt;span style=&quot;white-space: pre;&quot;&gt;&#x9;&lt;/span&gt;&lt;span style=&quot;white-space: pre;&quot;&gt;&#x9;&lt;/span&gt;&lt;span style=&quot;white-space: pre;&quot;&gt;&#x9;&lt;/span&gt;&lt;span style=&quot;white-space: pre;&quot;&gt;&#x9;&lt;/span&gt;&lt;span style=&quot;white-space: pre;&quot;&gt;&#x9;&lt;span style=&quot;white-space: pre;&quot;&gt;&#x9;&lt;/span&gt;&lt;span style=&quot;white-space: pre;&quot;&gt;&#x9;&lt;/span&gt;&lt;/span&gt;_alias&lt;/font&gt;&lt;/h1&gt;" style="rounded=0;whiteSpace=wrap;html=1;fillColor=#B09647;strokeColor=none;align=left;sketch=1;curveFitting=1;jiggle=2;fillStyle=solid;fontColor=#3A3117;" vertex="1" parent="yJ3wSWUFKZupVuXnvP56-70">
          <mxGeometry x="10" y="445" width="550" height="60" as="geometry" />
        </mxCell>
        <mxCell id="yJ3wSWUFKZupVuXnvP56-65" value="&lt;h1&gt;&lt;font face=&quot;Garamond&quot; style=&quot;font-size: 20px;&quot;&gt;&lt;span style=&quot;background-color: transparent;&quot;&gt;std::vector&amp;lt;std::string&amp;gt;&lt;/span&gt;&lt;span style=&quot;white-space: pre;&quot;&gt;&#x9;&lt;/span&gt;&lt;span style=&quot;white-space: pre;&quot;&gt;&#x9;&lt;span style=&quot;white-space: pre;&quot;&gt;&#x9;&lt;/span&gt;&lt;span style=&quot;white-space: pre;&quot;&gt;&#x9;&lt;/span&gt;&lt;/span&gt;_cgiExt&lt;/font&gt;&lt;/h1&gt;" style="rounded=0;whiteSpace=wrap;html=1;fillColor=#B09647;strokeColor=none;align=left;sketch=1;curveFitting=1;jiggle=2;fillStyle=solid;fontColor=#3A3117;" vertex="1" parent="yJ3wSWUFKZupVuXnvP56-70">
          <mxGeometry x="10" y="725" width="550" height="60" as="geometry" />
        </mxCell>
        <mxCell id="yJ3wSWUFKZupVuXnvP56-66" value="&lt;h1&gt;&lt;font face=&quot;Garamond&quot; style=&quot;font-size: 20px;&quot;&gt;std::string&lt;span style=&quot;white-space: pre;&quot;&gt;&#x9;&lt;/span&gt;&lt;span style=&quot;white-space: pre;&quot;&gt;&#x9;&lt;/span&gt;&lt;span style=&quot;white-space: pre;&quot;&gt;&#x9;&lt;/span&gt;&lt;span style=&quot;white-space: pre;&quot;&gt;&#x9;&lt;/span&gt;&lt;span style=&quot;white-space: pre;&quot;&gt;&#x9;&lt;span style=&quot;white-space: pre;&quot;&gt;&#x9;&lt;/span&gt;&lt;span style=&quot;white-space: pre;&quot;&gt;&#x9;&lt;/span&gt;&lt;/span&gt;_index&lt;/font&gt;&lt;/h1&gt;" style="rounded=0;whiteSpace=wrap;html=1;fillColor=#B09647;strokeColor=none;align=left;sketch=1;curveFitting=1;jiggle=2;fillStyle=solid;fontColor=#3A3117;" vertex="1" parent="yJ3wSWUFKZupVuXnvP56-70">
          <mxGeometry x="10" y="305" width="550" height="60" as="geometry" />
        </mxCell>
        <mxCell id="yJ3wSWUFKZupVuXnvP56-68" value="&lt;h1&gt;&lt;font face=&quot;Garamond&quot; style=&quot;font-size: 20px;&quot;&gt;std::vector&amp;lt;std::string&amp;gt;&lt;span style=&quot;white-space: pre;&quot;&gt;&#x9;&lt;/span&gt;&lt;span style=&quot;white-space: pre;&quot;&gt;&#x9;&lt;span style=&quot;white-space: pre;&quot;&gt;&#x9;&lt;/span&gt;&lt;span style=&quot;white-space: pre;&quot;&gt;&#x9;&lt;/span&gt;&lt;/span&gt;_cgiPath&lt;/font&gt;&lt;/h1&gt;" style="rounded=0;whiteSpace=wrap;html=1;fillColor=#B09647;strokeColor=none;align=left;sketch=1;curveFitting=1;jiggle=2;fillStyle=solid;fontColor=#3A3117;" vertex="1" parent="yJ3wSWUFKZupVuXnvP56-70">
          <mxGeometry x="10" y="655" width="550" height="60" as="geometry" />
        </mxCell>
        <mxCell id="yJ3wSWUFKZupVuXnvP56-69" value="&lt;h1&gt;&lt;font face=&quot;Garamond&quot; style=&quot;font-size: 20px;&quot;&gt;std::vector&amp;lt;short&amp;gt;&lt;span style=&quot;white-space: pre;&quot;&gt;&#x9;&lt;/span&gt;&lt;span style=&quot;white-space: pre;&quot;&gt;&#x9;&lt;/span&gt;&lt;span style=&quot;white-space: pre;&quot;&gt;&#x9;&lt;span style=&quot;white-space: pre;&quot;&gt;&#x9;&lt;/span&gt;&lt;span style=&quot;white-space: pre;&quot;&gt;&#x9;&lt;/span&gt;&lt;/span&gt;_methods&lt;/font&gt;&lt;/h1&gt;" style="rounded=0;whiteSpace=wrap;html=1;fillColor=#B09647;strokeColor=none;align=left;sketch=1;curveFitting=1;jiggle=2;fillStyle=solid;fontColor=#3A3117;" vertex="1" parent="yJ3wSWUFKZupVuXnvP56-70">
          <mxGeometry x="10" y="585" width="550" height="60" as="geometry" />
        </mxCell>
        <mxCell id="yJ3wSWUFKZupVuXnvP56-74" value="" style="group" vertex="1" connectable="0" parent="yJ3wSWUFKZupVuXnvP56-76">
          <mxGeometry x="706.25" y="940" width="570" height="410" as="geometry" />
        </mxCell>
        <mxCell id="yJ3wSWUFKZupVuXnvP56-54" value="" style="rounded=0;whiteSpace=wrap;html=1;fillColor=#8B536F;strokeColor=none;sketch=1;curveFitting=1;jiggle=2;fillStyle=solid;" vertex="1" parent="yJ3wSWUFKZupVuXnvP56-74">
          <mxGeometry width="570" height="410" as="geometry" />
        </mxCell>
        <mxCell id="yJ3wSWUFKZupVuXnvP56-58" value="&lt;h1&gt;&lt;font style=&quot;font-size: 32px; color: rgb(46, 27, 36);&quot; face=&quot;Garamond&quot;&gt;Socket&lt;/font&gt;&lt;/h1&gt;" style="rounded=0;whiteSpace=wrap;html=1;fillColor=light-dark(#7D4B64,#365A57);strokeColor=none;glass=0;shadow=0;sketch=1;curveFitting=1;jiggle=2;" vertex="1" parent="yJ3wSWUFKZupVuXnvP56-74">
          <mxGeometry x="10" y="20" width="543.75" height="110" as="geometry" />
        </mxCell>
        <mxCell id="yJ3wSWUFKZupVuXnvP56-71" value="&lt;h1&gt;&lt;font style=&quot;color: rgb(46, 27, 36);&quot; face=&quot;Garamond&quot;&gt;&lt;span style=&quot;font-size: 20px;&quot;&gt;int&lt;span style=&quot;white-space: pre;&quot;&gt;&#x9;&lt;/span&gt;&lt;span style=&quot;white-space: pre;&quot;&gt;&#x9;&lt;/span&gt;&lt;span style=&quot;white-space: pre;&quot;&gt;&#x9;&lt;/span&gt;&lt;span style=&quot;white-space: pre;&quot;&gt;&#x9;&lt;/span&gt;&lt;span style=&quot;white-space: pre;&quot;&gt;&#x9;&lt;/span&gt;&lt;span style=&quot;white-space: pre;&quot;&gt;&#x9;&lt;/span&gt;&lt;span style=&quot;white-space: pre;&quot;&gt;&#x9;&lt;/span&gt;&lt;span style=&quot;white-space: pre;&quot;&gt;&#x9;&lt;/span&gt;_opt&lt;/span&gt;&lt;/font&gt;&lt;/h1&gt;" style="rounded=0;whiteSpace=wrap;html=1;fillColor=#7D4B64;strokeColor=none;align=left;sketch=1;curveFitting=1;jiggle=2;fontColor=#051510;fillStyle=solid;" vertex="1" parent="yJ3wSWUFKZupVuXnvP56-74">
          <mxGeometry x="10" y="190" width="553.75" height="60" as="geometry" />
        </mxCell>
        <mxCell id="yJ3wSWUFKZupVuXnvP56-72" value="&lt;h1&gt;&lt;font face=&quot;Garamond&quot; color=&quot;#2e1b24&quot;&gt;&lt;span style=&quot;font-size: 20px;&quot;&gt;int&lt;span style=&quot;white-space: pre;&quot;&gt;&#x9;&lt;/span&gt;&lt;span style=&quot;white-space: pre;&quot;&gt;&#x9;&lt;/span&gt;&lt;span style=&quot;white-space: pre;&quot;&gt;&#x9;&lt;/span&gt;&lt;span style=&quot;white-space: pre;&quot;&gt;&#x9;&lt;/span&gt;&lt;span style=&quot;white-space: pre;&quot;&gt;&#x9;&lt;/span&gt;&lt;span style=&quot;white-space: pre;&quot;&gt;&#x9;&lt;/span&gt;&lt;span style=&quot;white-space: pre;&quot;&gt;&#x9;&lt;/span&gt;&lt;span style=&quot;white-space: pre;&quot;&gt;&#x9;&lt;/span&gt;_fd&lt;/span&gt;&lt;/font&gt;&lt;/h1&gt;" style="rounded=0;whiteSpace=wrap;html=1;fillColor=#7D4B64;strokeColor=none;align=left;sketch=1;curveFitting=1;jiggle=2;fontColor=#051510;fillStyle=solid;" vertex="1" parent="yJ3wSWUFKZupVuXnvP56-74">
          <mxGeometry x="10" y="260" width="553.75" height="60" as="geometry" />
        </mxCell>
        <mxCell id="yJ3wSWUFKZupVuXnvP56-73" value="&lt;h1&gt;&lt;font face=&quot;Garamond&quot; color=&quot;#2e1b24&quot;&gt;&lt;span style=&quot;font-size: 20px;&quot;&gt;struct sockaddr_in&lt;span style=&quot;white-space: pre;&quot;&gt;&#x9;&lt;/span&gt;&lt;span style=&quot;white-space: pre;&quot;&gt;&#x9;&lt;/span&gt;&lt;span style=&quot;white-space: pre;&quot;&gt;&#x9;&lt;/span&gt;&lt;span style=&quot;white-space: pre;&quot;&gt;&#x9;&lt;/span&gt;_addr&lt;/span&gt;&lt;/font&gt;&lt;/h1&gt;" style="rounded=0;whiteSpace=wrap;html=1;fillColor=#7D4B64;strokeColor=none;align=left;sketch=1;curveFitting=1;jiggle=2;fontColor=#051510;fillStyle=solid;" vertex="1" parent="yJ3wSWUFKZupVuXnvP56-74">
          <mxGeometry x="10" y="330" width="553.75" height="60" as="geometry" />
        </mxCell>
        <mxCell id="yJ3wSWUFKZupVuXnvP56-47" value="" style="endArrow=classic;html=1;rounded=0;exitX=1;exitY=0.5;exitDx=0;exitDy=0;entryX=0;entryY=0.5;entryDx=0;entryDy=0;strokeColor=#72BEB0;strokeWidth=2;" edge="1" parent="yJ3wSWUFKZupVuXnvP56-76" source="yJ3wSWUFKZupVuXnvP56-8" target="yJ3wSWUFKZupVuXnvP56-19">
          <mxGeometry width="50" height="50" relative="1" as="geometry">
            <mxPoint x="130" y="1620" as="sourcePoint" />
            <mxPoint x="340" y="1775" as="targetPoint" />
          </mxGeometry>
        </mxCell>
        <mxCell id="yJ3wSWUFKZupVuXnvP56-56" value="" style="endArrow=classic;html=1;rounded=0;exitX=1;exitY=0.5;exitDx=0;exitDy=0;entryX=0;entryY=0.5;entryDx=0;entryDy=0;strokeColor=#FFD966;strokeWidth=2;" edge="1" parent="yJ3wSWUFKZupVuXnvP56-76" source="yJ3wSWUFKZupVuXnvP56-41" target="yJ3wSWUFKZupVuXnvP56-52">
          <mxGeometry width="50" height="50" relative="1" as="geometry">
            <mxPoint x="1110" y="1090" as="sourcePoint" />
            <mxPoint x="1160" y="1040" as="targetPoint" />
          </mxGeometry>
        </mxCell>
        <mxCell id="yJ3wSWUFKZupVuXnvP56-55" value="" style="endArrow=classic;html=1;rounded=0;exitX=0.5;exitY=1;exitDx=0;exitDy=0;entryX=0.5;entryY=0;entryDx=0;entryDy=0;strokeColor=#FF99CC;strokeWidth=2;" edge="1" parent="yJ3wSWUFKZupVuXnvP56-76" source="yJ3wSWUFKZupVuXnvP56-42" target="yJ3wSWUFKZupVuXnvP56-54">
          <mxGeometry width="50" height="50" relative="1" as="geometry">
            <mxPoint x="1110" y="1090" as="sourcePoint" />
            <mxPoint x="1160" y="1040" as="targetPoint" />
          </mxGeometry>
        </mxCell>
        <mxCell id="yJ3wSWUFKZupVuXnvP56-81" value="" style="rounded=0;whiteSpace=wrap;html=1;fillColor=#202020;sketch=1;curveFitting=1;jiggle=2;strokeColor=none;" vertex="1" parent="yJ3wSWUFKZupVuXnvP56-76">
          <mxGeometry x="2190" y="-210" width="1551" height="2621" as="geometry" />
        </mxCell>
        <mxCell id="yJ3wSWUFKZupVuXnvP56-87" value="" style="group" vertex="1" connectable="0" parent="yJ3wSWUFKZupVuXnvP56-76">
          <mxGeometry x="2190" y="-210" width="1551" height="2621" as="geometry" />
        </mxCell>
        <mxCell id="yJ3wSWUFKZupVuXnvP56-82" value="&lt;font face=&quot;Garamond&quot; style=&quot;color: rgb(255, 217, 102); font-size: 100px;&quot;&gt;&lt;b style=&quot;&quot;&gt;1&lt;/b&gt;&lt;/font&gt;" style="rhombus;whiteSpace=wrap;html=1;strokeColor=#FFD966;fillColor=#3A3A3A;dashed=1;dashPattern=1 1;shadow=1;strokeWidth=4;" vertex="1" parent="yJ3wSWUFKZupVuXnvP56-87">
          <mxGeometry x="80" y="110" width="271" height="261" as="geometry" />
        </mxCell>
        <mxCell id="yJ3wSWUFKZupVuXnvP56-89" value="" style="group" vertex="1" connectable="0" parent="yJ3wSWUFKZupVuXnvP56-87">
          <mxGeometry width="1551" height="2621" as="geometry" />
        </mxCell>
        <mxCell id="yJ3wSWUFKZupVuXnvP56-84" value="&lt;h1&gt;&lt;font style=&quot;font-size: 60px; color: rgb(255, 217, 102);&quot; face=&quot;Garamond&quot;&gt;Check and Fill Database&lt;/font&gt;&lt;/h1&gt;" style="shape=step;perimeter=stepPerimeter;whiteSpace=wrap;html=1;fixedSize=1;strokeColor=#FFD966;fillColor=#3A3A3A;" vertex="1" parent="yJ3wSWUFKZupVuXnvP56-89">
          <mxGeometry x="390" y="170.75" width="1080" height="139.5" as="geometry" />
        </mxCell>
        <mxCell id="yJ3wSWUFKZupVuXnvP56-86" value="&lt;div style=&quot;line-height: 110%;&quot;&gt;&lt;font style=&quot;font-size: 30px; color: rgb(255, 241, 164); line-height: 110%;&quot;&gt;&lt;b&gt;Check and read Configuration file&lt;/b&gt;&lt;/font&gt;&lt;div&gt;&lt;font style=&quot;font-size: 30px; color: rgb(255, 241, 164);&quot;&gt;&lt;b&gt;&lt;br&gt;&lt;/b&gt;&lt;/font&gt;&lt;div&gt;&lt;font style=&quot;font-size: 30px; color: rgb(255, 241, 164); line-height: 110%;&quot;&gt;&lt;b&gt;Remove comments and white spaces&lt;/b&gt;&lt;/font&gt;&lt;/div&gt;&lt;div&gt;&lt;font style=&quot;font-size: 30px; color: rgb(255, 241, 164);&quot;&gt;&lt;b&gt;&lt;br&gt;&lt;/b&gt;&lt;/font&gt;&lt;/div&gt;&lt;div&gt;&lt;font style=&quot;font-size: 30px; color: rgb(255, 241, 164); line-height: 110%;&quot;&gt;&lt;b&gt;Split each &#39;server&#39; block&lt;/b&gt;&lt;/font&gt;&lt;/div&gt;&lt;div&gt;&lt;font style=&quot;font-size: 30px; color: rgb(255, 241, 164);&quot;&gt;&lt;b&gt;&lt;br&gt;&lt;/b&gt;&lt;/font&gt;&lt;/div&gt;&lt;div&gt;&lt;font style=&quot;font-size: 30px; line-height: 110%;&quot;&gt;&lt;b style=&quot;&quot;&gt;&lt;font style=&quot;color: rgb(255, 241, 164);&quot;&gt;For each &#39;server&#39; :&amp;nbsp; create a&lt;/font&gt;&lt;font style=&quot;color: rgb(154, 199, 191);&quot;&gt; ServerConf &lt;/font&gt;&lt;font style=&quot;color: rgb(255, 241, 164);&quot;&gt;object,&lt;/font&gt;&lt;font style=&quot;color: rgb(154, 199, 191);&quot;&gt;&amp;nbsp;&lt;/font&gt;&lt;/b&gt;&lt;/font&gt;&lt;/div&gt;&lt;div&gt;&lt;font style=&quot;font-size: 30px; line-height: 110%;&quot;&gt;&lt;b style=&quot;&quot;&gt;&lt;font style=&quot;color: rgb(255, 241, 164);&quot;&gt;all &#39;servers&#39; are stocked in _servers list of&lt;/font&gt;&lt;font style=&quot;color: rgb(204, 204, 204);&quot;&gt; ConfigParser&lt;/font&gt;&lt;/b&gt;&lt;/font&gt;&lt;/div&gt;&lt;div&gt;&lt;/div&gt;&lt;/div&gt;&lt;/div&gt;" style="text;html=1;whiteSpace=wrap;overflow=hidden;rounded=0;align=center;" vertex="1" parent="yJ3wSWUFKZupVuXnvP56-76">
          <mxGeometry x="2560" y="161" width="1091" height="260" as="geometry" />
        </mxCell>
        <mxCell id="yJ3wSWUFKZupVuXnvP56-90" value="&lt;font face=&quot;Garamond&quot; style=&quot;color: rgb(255, 217, 102); font-size: 100px;&quot;&gt;&lt;b style=&quot;&quot;&gt;2&lt;/b&gt;&lt;/font&gt;" style="rhombus;whiteSpace=wrap;html=1;strokeColor=#FFD966;fillColor=#3A3A3A;dashed=1;dashPattern=1 1;shadow=1;strokeWidth=4;" vertex="1" parent="yJ3wSWUFKZupVuXnvP56-76">
          <mxGeometry x="2260" y="1790" width="271" height="261" as="geometry" />
        </mxCell>
        <mxCell id="yJ3wSWUFKZupVuXnvP56-91" value="&lt;h1&gt;&lt;font style=&quot;font-size: 60px; color: rgb(255, 217, 102);&quot; face=&quot;Garamond&quot;&gt;Setup and run Servers&lt;/font&gt;&lt;/h1&gt;" style="shape=step;perimeter=stepPerimeter;whiteSpace=wrap;html=1;fixedSize=1;strokeColor=#FFD966;fillColor=#3A3A3A;" vertex="1" parent="yJ3wSWUFKZupVuXnvP56-76">
          <mxGeometry x="2560" y="1850.75" width="1080" height="139.5" as="geometry" />
        </mxCell>
      </root>
    </mxGraphModel>
  </diagram>
</mxfile>
